<svg version="1.2" xmlns="http://www.w3.org/2000/svg" viewBox="0 0 250 43" width="250" height="43">
	<title>logo-svg</title>
	<style>
		.s0 { fill: #ff6600 } 
	</style>
	<path id="Hacker  News" fill-rule="evenodd" class="s0" d="m20.6 9.4c0.6 0 1.1 0.5 1.1 1.1v22.6c0 0.6-0.5 1.1-1 1.1-0.7 0-1.1-0.5-1.1-1.1v-22.6c0-0.6 0.4-1.1 1-1.1zm-13.4 11.5c0-0.6 0.4-1 1-1h9.4c0.7 0 1.1 0.4 1.1 1 0 0.6-0.4 1.1-1.1 1.1h-9.4c-0.6 0-1-0.5-1-1.1zm-2-11.5c0.6 0 1.1 0.5 1.1 1.1v22.6c0 0.6-0.5 1.1-1.1 1.1-0.6 0-1.1-0.5-1.1-1.1v-22.6c0-0.6 0.5-1.1 1.1-1.1zm34.8 15.7c0 0.6-0.5 1.1-1.1 1.1h-5.6c-0.6 0-1.1-0.5-1.1-1.1 0-0.6 0.5-1.1 1.1-1.1h5.6c0.6 0 1.1 0.5 1.1 1.1zm-5.3-11.3c0.6 0.3 0.8 0.9 0.6 1.4l-7.9 18.4c-0.3 0.5-0.9 0.8-1.4 0.5-0.6-0.2-0.8-0.9-0.6-1.4l7.9-18.4c0.2-0.5 0.9-0.7 1.4-0.5zm11.6 20.3c-0.5 0.3-1.2 0-1.4-0.5l-9.7-22.7c-0.3-0.5 0-1.2 0.5-1.4 0.5-0.3 1.2 0 1.4 0.5l9.7 22.7c0.3 0.5 0 1.2-0.5 1.4zm14.3 0c-0.1 0-0.2 0-0.2 0-2 0-4-0.7-5.8-1.8-1.7-1-3.1-2.6-4-4.4-0.9-1.7-1.4-3.7-1.4-5.6q0-0.1 0-0.4c0-1.8 0.3-3.6 1-5.2 0.8-2.2 2.4-4.3 4.4-5.6 1.8-1.1 3.8-1.7 5.8-1.7 2.1 0 4.1 0.6 5.8 1.7 0.5 0.3 0.6 1 0.3 1.5-0.3 0.5-1 0.6-1.4 0.3-1.2-0.8-2.8-1.3-4.7-1.3-1.8 0-3.4 0.5-4.6 1.3-1.8 1.3-3 3.1-3.7 4.7-0.5 1.4-0.8 2.8-0.8 4.3q0 0.2 0 0.4c0.1 1.6 0.5 3.2 1.2 4.6 0.8 1.5 2 2.9 3.3 3.7 1.4 0.9 3 1.4 4.7 1.4h0.1c2.2 0 4.6-0.8 6.4-2.6 0.4-0.4 1.1-0.4 1.5 0 0.4 0.4 0.4 1.1 0 1.5-2.2 2.2-5.2 3.3-7.9 3.3zm18.4-11.9c0.5-0.4 1.1-0.4 1.6 0l10.1 10.1c0.5 0.4 0.5 1.1 0 1.5-0.4 0.5-1.1 0.5-1.5 0l-10.2-10.1c-0.4-0.4-0.4-1.1 0-1.5zm-2.2-0.8c-0.5-0.4-0.5-1.1 0-1.5l10.3-10.3c0.4-0.4 1-0.4 1.5 0 0.4 0.5 0.4 1.1 0 1.6l-10.3 10.2c-0.4 0.5-1.1 0.5-1.5 0zm-2 12.7c-0.6 0-1-0.4-1-1v-22.7c0-0.6 0.4-1 1-1 0.7 0 1.1 0.4 1.1 1v22.7c0 0.6-0.4 1-1.1 1zm23.8-13.2c0-0.6 0.4-1.1 1-1.1h9.2c0.6 0 1 0.5 1 1.1 0 0.6-0.4 1.1-1 1.1h-9.2c-0.6 0-1-0.5-1-1.1zm-0.1 12.2c0-0.6 0.4-1.1 1-1.1h11.4c0.6 0 1 0.5 1 1.1 0 0.6-0.4 1-1 1h-11.4c-0.6 0-1-0.4-1-1zm-1.9-23.7c0.6 0 1 0.4 1 1v22.7c0 0.6-0.4 1-1 1-0.6 0-1.1-0.4-1.1-1v-22.7c0-0.6 0.5-1 1.1-1zm15.3 1c0 0.6-0.5 1.1-1 1.1h-11.3c-0.6 0-1-0.5-1-1.1 0-0.6 0.4-1 1-1h11.3c0.5 0 1 0.4 1 1zm11.8 12.8c0.4-0.4 1-0.4 1.5 0l9.7 9.2c0.4 0.3 0.4 1 0 1.4-0.4 0.5-1.1 0.5-1.5 0.1l-9.7-9.2c-0.4-0.4-0.4-1.1 0-1.5zm-5.4-13.8c0.6 0 1 0.4 1 1v22.7c0 0.6-0.4 1-1 1-0.7 0-1.1-0.4-1.1-1v-22.7c0-0.6 0.4-1 1.1-1zm9.1 0c4 0 6.6 2.2 6.6 6.4 0 4.3-2.7 6.4-6.5 6.4h-5.5c-0.6 0-1-0.5-1-1.1 0-0.6 0.4-1.1 1-1.1h5.5c3.5 0 4.4-2 4.4-4.2 0-2.5-1.1-4.3-4.5-4.3h-5.6c-0.6 0-1.1-0.5-1.1-1.1 0-0.6 0.5-1 1.1-1h5.6zm28.2 0.1c0.5-0.3 1.2-0.2 1.5 0.3l15.4 22.7c0.3 0.5 0.2 1.2-0.3 1.5-0.5 0.3-1.2 0.1-1.5-0.3l-15.4-22.7c-0.3-0.5-0.2-1.2 0.3-1.5zm16 17.5c-0.6 0-1.1-0.4-1.1-1v-15.6c0-0.6 0.5-1.1 1.1-1.1 0.6 0 1 0.5 1 1.1v15.6c0 0.6-0.4 1-1 1zm-15.4 7.1c-0.6 0-1.1-0.4-1.1-1.1v-15.5c0-0.6 0.5-1.1 1.1-1.1 0.6 0 1.1 0.5 1.1 1.1v15.5c0 0.7-0.5 1.1-1.1 1.1zm25.5-13.2c0-0.6 0.4-1.1 1-1.1h9.2c0.6 0 1 0.5 1 1.1 0 0.6-0.4 1-1 1h-9.2c-0.6 0-1-0.4-1-1zm-0.1 12.1c0-0.6 0.5-1 1.1-1h11.3c0.6 0 1 0.4 1 1 0 0.7-0.4 1.1-1 1.1h-11.3c-0.6 0-1.1-0.4-1.1-1.1zm-1.9-23.7c0.6 0 1.1 0.5 1.1 1.1v22.6c0 0.7-0.5 1.1-1.1 1.1-0.6 0-1.1-0.4-1.1-1.1v-22.6c0-0.6 0.5-1.1 1.1-1.1zm15.3 1.1c0 0.6-0.4 1.1-1 1.1h-11.3c-0.6 0-1-0.5-1-1.1 0-0.6 0.4-1.1 1-1.1h11.3c0.6 0 1 0.5 1 1.1zm25.5 17.1c-0.6-0.2-0.9-0.8-0.7-1.4l6-16.1c0.2-0.5 0.8-0.9 1.4-0.6 0.6 0.2 0.8 0.8 0.7 1.3l-6.1 16.1c-0.2 0.6-0.8 0.9-1.3 0.7zm-6-4.4c0.6-0.3 1.2 0.1 1.4 0.6l3.5 9c0.2 0.5-0.1 1.1-0.6 1.3-0.5 0.2-1.2-0.1-1.4-0.6l-3.5-9c-0.2-0.5 0.1-1.1 0.6-1.3zm-4.7 5.2c-0.5-0.2-0.8-0.8-0.6-1.4l6.3-16.9c0.2-0.5 0.8-0.9 1.4-0.6 0.6 0.2 0.9 0.8 0.6 1.3l-6.3 17c-0.2 0.5-0.8 0.8-1.4 0.6zm-10.5-18.9c0.6-0.3 1.2 0.1 1.4 0.6l8.4 22.7c0.2 0.5-0.1 1.1-0.6 1.3-0.6 0.3-1.2 0-1.4-0.6l-8.4-22.7c-0.2-0.5 0-1.1 0.6-1.3zm44.2 3.2c-1.1-0.9-2.4-1.1-3.5-1.1h-0.1c-0.6 0-1.3 0.1-1.9 0.3-0.6 0.2-1.1 0.5-1.6 1-0.8 0.8-0.9 1.7-0.9 2.1-0.1 0.6-0.6 1.1-1.2 1-0.6 0-1-0.5-1-1.1 0-0.7 0.3-2.2 1.5-3.5 0.7-0.7 1.6-1.2 2.4-1.5 0.9-0.3 1.8-0.4 2.6-0.4h0.1c1.7 0 3.4 0.4 4.7 1.5 1.5 1 2.5 2.7 2.6 4.7 0.1 0.6-0.4 1.1-1 1.1-0.6 0.1-1.1-0.4-1.1-1-0.1-1.3-0.9-2.5-1.8-3.1zm-3.2 7.6c1.5 0.6 3.5 1 5 2.2 0.4 0.2 0.7 0.5 1.1 0.8 0.3 0.4 0.3 1.1-0.1 1.5-0.4 0.4-1.1 0.4-1.5-0.1q-0.3-0.3-0.7-0.6c-1.3-0.8-2.9-1.2-4.6-1.8-1.5-0.5-3-1.3-4.2-2.6-0.4-0.4-0.7-0.8-1-1.2-0.3-0.5-0.1-1.2 0.4-1.5 0.4-0.3 1.1-0.2 1.4 0.3q0.3 0.5 0.7 1c1.1 1.1 2.5 1.7 3.5 2zm7.6 7.3c0 1.8-0.8 3.4-2 4.5-0.8 0.8-1.8 1.3-2.8 1.7-1.1 0.3-2.1 0.4-3.2 0.4-1.2 0-2.4-0.2-3.5-0.6-1.2-0.3-2.3-1-3.2-1.9-1.2-1.3-1.9-2.9-1.9-4.7 0-0.1 0-0.1 0-0.2 0-0.6 0.5-1.1 1.1-1 0.6 0 1.1 0.5 1.1 1.1 0 0 0 0.1 0 0.1 0 1.2 0.5 2.4 1.3 3.3 0.7 0.6 1.5 1.1 2.4 1.4q1.3 0.5 2.8 0.5 1.3 0 2.5-0.4 1.2-0.4 2-1.2c0.9-0.7 1.4-1.9 1.4-3 0-0.7 0.4-1.2 1-1.2 0.6 0 1.1 0.5 1.1 1.1v0.1z"/>
</svg>