<svg version="1.2" xmlns="http://www.w3.org/2000/svg" viewBox="0 0 566 145" width="300" height="77">
	<title>logo-svg</title>
	<style>
		.s0 { fill: #ffffff } 
		.s1 { fill: #ffffff;stroke: #ffffff;paint-order:stroke fill markers;stroke-linejoin: round;stroke-width: 6 } 
		.s2 { fill: #a13416 } 
	</style>
	<path id="Hacker  News" fill-rule="evenodd" class="s0" d="m18.7 84.5h-10.2v-45.8h10.2v18.8l32.3 0.1v-18.8h10.2v45.8h-10.2v-18.7l-32.3-0.1zm93.1 0.2l-33.8-0.1q-5.2 0-8-2.6-2.7-2.6-2.7-7.5 0-4.8 2.7-7.4 2.8-2.6 8-2.6l24.6 0.1v-1.6q0-3.9-3.9-3.9l-27.1-0.1 0.1-7.3 29.6 0.1q5.8 0 8.1 2.6 2.4 2.7 2.4 7.5zm-32.2-7.5l23 0.1 0.1-5.4-23-0.1q-1.2 0-1.9 0.7-0.6 0.7-0.6 2 0 1.2 0.5 1.9 0.7 0.8 1.9 0.8zm78.3 7.9l-22.1-0.1q-8.6 0-13.4-4.2-4.8-4.3-4.7-12.6 0-8.3 4.8-12.5 4.8-4.3 13.4-4.3l21.4 0.1v7.3l-21.4-0.1q-4.2 0-6.4 2.3-2.2 2.4-2.2 7.2 0 4.8 2.2 7.1 2.1 2.3 6.3 2.3l22.1 0.1zm14-0.3h-9.2l0.1-45.8h9.2v12.8h22.2q5.6 0 8.6 2.8 3 2.7 3 7.6 0 8-7.7 9.5l7.7 13.2-10.4-0.1-7.5-12.7h-15.9zm21.7-25.7h-21.7v5.6h21.7q1.3 0 2-0.7 0.8-0.8 0.8-2.1 0-2.8-2.8-2.8zm60.1 26.1h-25.9q-8.6 0-13.4-4.2-4.8-4.3-4.8-12.6 0-8.3 4.8-12.5 4.8-4.3 13.4-4.3h16q5.6 0 8.6 2.7 3 2.6 3 7.5 0 10.1-11.6 10.1h-24.2q1.4 5.9 8.2 5.9h25.9zm-10.3-26.2h-15.6q-6.6 0-8.1 5.6h23.7q1.2 0 1.9-0.8 0.8-0.8 0.8-2.1 0-2.7-2.7-2.7zm27.2 26h-9.4v-33h25.2q5.5 0 8.2 2.9 2.6 2.7 2.6 7.3v6.8h-9.4v-5.7q0-3.8-3.9-3.8h-13.3zm87.7 0.1h-10.2l0.1-45.8h10.3l32.4 33v-32.9h10.3l-0.1 45.8h-10.4l-32.3-33.1zm93.6 0.5h-25.9q-8.6-0.1-13.4-4.3-4.8-4.3-4.8-12.5 0-8.4 4.8-12.6 4.9-4.3 13.5-4.2h16q5.6 0 8.4 2.7 3 2.6 3 7.6 0 10-11.5 10l-24.2-0.1q1.3 6 8.2 6.1h25.9zm-10.3-26.3h-15.5q-6.6-0.1-8.3 5.5l23.7 0.1q1.3 0 2-0.8 0.8-0.7 0.8-2.1 0.1-2.7-2.7-2.7zm28 26h-8.8l-3-33h9.3l2.1 25 9.9-4.4 0.1-20.5h9.3l-0.1 20.6 9.9 4.4 2.3-25h9.4l-3.3 33h-8.7l-14.3-6.3zm77.7 0.4l-33-0.1v-7.4l31.3 0.1q2.7 0 2.7-3 0-2.9-2.7-2.9h-20.3q-5.7 0-8.6-2.6-3-2.7-2.9-7.6 0-4.9 3-7.4 3-2.7 8.6-2.7h29.2v7.4h-28.7q-2.8 0-2.8 2.6 0 1.4 0.8 2.2 0.8 0.7 2 0.7h21.5q5 0 7.5 2.7 2.7 2.5 2.7 7.4 0 5-2.7 7.8-2.7 2.8-7.6 2.8z"/>
	<path id="Shape 1" class="s1" d="m11 99h544v13h-544z"/>
	<path id="Shape 1 copy" class="s2" d="m7.8 96h190.4v19h-190.4z"/>
</svg>